<?xml version="1.0" encoding="UTF-8"?><svg id="Calque_1" xmlns="http://www.w3.org/2000/svg" viewBox="0 0 379.57 379.57"><defs><style>.cls-1{fill:#fff;stroke-width:0px;}</style></defs><path class="cls-1" d="m75.69,234.79c-9.51,2.92-18.67,5.73-27.83,8.54,7.56-6.6,16.88-9.1,26.72-11.51-.54-1.65-1.01-3.1-1.62-4.98-5.72,1.58-11.17,3.1-16.62,4.61-.08-.24-.16-.48-.25-.72,5.29-1.91,10.58-3.82,15.99-5.77-1.04-4.73-2.04-9.45-3.15-14.15-.15-.62-.75-1.48-1.28-1.6-4.76-1.03-4.91-4.65-4.91-8.41,0-11.73,0-23.45,0-35.18,0-5.16-1.26-6.27-5.94-4.11-2.75,1.27-5.06,3.69-7.2,5.95-.57.6-.21,2.93.53,3.67.6.61,2.39.08,3.66,0,1.12-.06,2.77-.67,3.24-.17.79.85,1.53,2.89,1.06,3.56-1.24,1.76-2.93,3.81-4.83,4.35-3.11.87-5.85-.68-7.3-3.8-1.91-4.09-.16-9.53,4.27-12.83,5.02-3.73,10.82-4.88,16.95-4.79,1.12.02,2.23,0,2.84,0,22.96-61.85,65.76-94.76,132.88-89.5,51.22,4.01,99.85,46.44,107.24,105.33,7.03.32,9.14-6.35,13.07-10.38.32.26.63.52.95.78v9.75h8.63c-.83-.91-1.31-1.24-1.52-1.7-.32-.72-.74-1.6-.56-2.26.13-.5,1.25-1.16,1.74-1.03.84.22,1.88.84,2.23,1.58,1.3,2.68-.78,5.75-4.09,6.07-1.95.19-3.93.03-6.27.03,0,8.96-.08,17.53.05,26.09.04,2.6,2.36,3.45,4.5,1.85.76-.57,1.34-1.4,2.08-2.2-.12,4.18-3.75,7.34-8.67,7.7-4.84.35-8.33-2.1-8.59-6.78-.36-6.59-.18-13.21-.23-19.82-.01-1.62.21-3.29-.1-4.85-.17-.86-1.22-1.55-2.45-2.02,1.09,17.5-.79,34.3-5.14,50.95.69-2.4,1.15-4.91,2.16-7.18.7-1.57,2.53-4.13,3.23-3.94,2.72.74,2.02,3.19,1.38,5.25-1.65,5.38-4.69,9.83-8.87,13.6-1.43,1.28-2.78,2.86-3.61,4.57-17.76,36.87-46.48,60.26-86.44,69.01-54.7,11.98-111.84-17.02-135.33-68.01-.72-1.57-1.45-3.14-2.58-5.57Zm17.72-9.99c.12,3.78,1.81,4.79,5.29,4.59,29.77-1.66,59.23,2.36,88.8,4.68,21.73,1.7,43.54,2.76,65.33,3.18,8.59.17,17.24-2.12,25.84-3.43,1.09-.17,2.66-.94,3-1.82,2.89-7.47,5.55-15.03,8.31-22.66-8.23-3.12-11.61-8.67-11.9-16.19-.28-7.28,2.4-13.37,8.85-16.96,3.15-1.75,3.28-3.63,2.68-6.57-4.04-19.79-12.71-37.24-26.91-51.63-26.93-27.29-59.76-37.24-96.83-28.85-46.72,10.57-77.97,50.26-79.36,98.12-.16,5.52.53,11.05.78,15.87,2.24.43,3.54.67,4.83.92-.95,1.71-1.9,3.41-2.85,5.12-.11,2.85.83,5.94,1.43,9.1.54,2.8,1.83,3.8,4.79,3.68,3.66-.14,7.35.44,11.03.71l-.05,1.43c-4.26.23-8.52.47-13.06.72Zm3.57,8.47c13.94,31.09,48.97,58.47,92.75,58.13,43.76-.34,76.09-28.41,87.12-51.21-2.82.39-5.5.89-8.21,1.1-21.07,1.7-42.11.54-63.12-1.14-27.45-2.2-54.87-4.75-82.33-6.79-8.53-.63-17.16-.1-26.2-.1Zm-12.6-27.99c-8.81-62.48,35.29-113.04,88.95-120.8,26.43-3.82,51.18,1.42,73.5,16.26,25.95,17.26,41.2,41.65,46.54,72.5h7.29c-.32-2.25-.46-4.37-.96-6.41-1.09-4.47-2.12-8.98-3.58-13.33-9.4-27.91-27-49.15-52.73-63.4-28.56-15.81-58.77-18.58-89.61-8.52-27.55,8.99-48.91,26.46-63.25,51.89-12.14,21.51-16.5,44.66-13.78,69.2.3,2.66,1.38,3.86,4.08,3.32,1.19-.24,2.38-.48,3.55-.72Zm1.36,28.86c16.95,40.84,62.04,72.74,115.69,66.95,47.19-5.09,80.2-38.84,90.18-66.76-1.53.84-2.86,1.95-4.38,2.32-4.38,1.1-6.6,4.25-8.8,7.86-8.7,14.32-20.27,25.93-34.7,34.42-30.29,17.84-62.03,20.53-94.7,7.5-24.49-9.77-42.51-26.92-54.44-50.41-.96-1.88-2.02-2.59-4.04-2.26-1.45.24-2.94.24-4.83.37Zm216.33-47.51c-.37-.21-.73-.42-1.1-.63-2.17,1.66-5.39,2.91-6.27,5.09-1.24,3.06-1.25,6.9-.75,10.25.2,1.35,3.08,2.44,4.92,3.26.28.13,2.07-1.76,2.18-2.81.53-5.04.72-10.11,1.02-15.17Zm-15.72,43.68c8.02-4.22,12.62-12.63,11.52-21.07-1.79.2-3.58.4-5.12.57-2.16,6.91-4.22,13.52-6.41,20.5Zm-205.18-7.13c2.79-.39,4.98-.69,7.43-1.03-1.18-4.5-2.3-8.74-3.47-13.17-2.45.28-4.63.53-7.33.83,1.16,4.6,2.23,8.86,3.37,13.36Zm9.71,6.34c-.11-5.08-1.55-5.65-8.36-3.38q1.29,4.64,8.36,3.38Zm202.85-52.93c.31,3.68.58,6.81.84,9.93.35.13.7.26,1.05.39.66-1.33,1.73-2.61,1.88-3.99.26-2.47-.26-4.88-3.76-6.33Zm-4.95,12.73c.45.1.91.2,1.36.3,2.68-2.82.51-6.07.69-9.11-.33-.03-.66-.07-.99-.1l-1.07,8.92Z"/><path class="cls-1" d="m195.71,143.59c-.24,1.75-.52,3.73-.83,6.01,3.48.61,6.83.03,9.26-2.73,2.73-3.09,2.91-7.02,1.25-10.57-3.12-6.65-9.59-5.49-15.62-5.86-.6-6.02-1.85-12.32-7.88-14.96-3.99-1.75-9.05-2.46-13.35-1.8-9.93,1.53-14.16,10.01-12.77,22.75-.87-2.38-1.75-4.76-2.63-7.14-5.04-.04-8.79,2.8-9.69,7.38-.9,4.57.91,9.15,5.46,9.59,8.36.82,8.44,6.33,8.53,12.54,10.48-2.16,20.52-2.45,29.48,4.32-2.63-.45-5.27-.89-8.68-1.47,5,10.49,9.71,20.37,14.41,30.24l.84-.13c0-3.89-.16-7.8.04-11.68.24-4.71.25-9.53,1.3-14.09,1.95-8.46,11.87-12.82,19.57-8.89,1.05.54,1.79,2.15,2.14,3.41.17.59-.79,1.76-1.52,2.22-.34.22-1.51-.47-2.03-1.01-4.96-5.2-11.97-3.64-14.05,3.31-.71,2.35-1.01,4.9-1.06,7.37-.16,8.6-.18,17.21-.16,25.81,0,4.75,5.3,12.41,9.8,13.97,1.6.55,3.47.32,5.3.45-3.28,3.8-11.01,4.85-15.61,1.44-3.43-2.54-6.87-5.69-8.93-9.35-5.36-9.53-9.98-19.48-14.87-29.27-.83-1.65-1.54-3.36-3.13-4.99,0,1.25.03,2.49,0,3.74-.23,8.09.17,16.26-.89,24.24-1.25,9.37-10.35,14.1-19.15,10.6-1.3-.52-2.12-2.52-2.87-3.98-.17-.33.81-1.62,1.47-1.86.52-.18,1.54.43,2.05.97,5.07,5.33,11.79,3.84,14.02-3.25.59-1.88.99-3.9,1-5.86.09-10.94.05-21.89.05-33.83-3.89,1.13-7.5,1.86-10.82,3.26-2.57,1.08-2.99,3.81-1.87,6.1,1.17,2.4,3.06,1.02,4.78.19,2.3-1.12,4.19.59,3.85,3.47-.38,3.11-2.5,4.46-5.35,4.81-3.38.41-6.57-1.75-7.34-5.03-.87-3.73-.33-7.4,2.31-10.17,3.21-3.38,2.3-7.14,1.65-10.88-.15-.86-1.5-1.92-2.47-2.15-7.12-1.71-10.4-5.05-10.57-11.06-.21-7.97,2.63-11.92,10.03-13.93.96-.26,1.93-.48,3.25-.81,1.18-7.7,5.49-13.2,13.4-14.87,11.88-2.51,22.74,1.26,26,14.18.25,1,1.83,1.94,2.99,2.37,2.65.98,5.66,1.2,8.1,2.5,5.32,2.84,7.4,9.26,5.57,15.64-1.52,5.29-5.7,8.37-11.89,8.19-2.81-.08-4.16.69-4.36,3.52-.1,1.47-.54,2.91-1.29,4.42-.29-2.59-.59-5.18-.91-8.01-1.66.26-3.31.52-4.52.71,2.91-3.2,6.01-6.6,9.19-10.08Z"/><path class="cls-1" d="m241.88,203.64c-4.43,7.55-10.63,7.75-14.91,1.67-1.96,1.25-3.78,2.82-5.89,3.66-4.48,1.8-9.03.26-11.15-3.37-2.38-4.1-1.58-10.04,2.08-12.94,1.92-1.52,4.27-2.5,6.48-3.61,1.33-.66,2.77-1.11,4.17-1.62,2.79-1.03,4.52-3.16,4.05-5.96-.3-1.79-1.74-3.87-3.28-4.87-2.31-1.5-5.27-.32-7.91,2.65.41.19,1.02.27,1.29.62.82,1.07,2.25,2.38,2.06,3.34-.2,1.06-1.91,2.53-2.98,2.54-1.32.02-3.24-.93-3.89-2.05-1.56-2.68-.69-5.27,1.61-7.33,4.83-4.33,16.41-4.36,20.78.47,1.73,1.92,2.74,5.03,2.93,7.69.43,5.82.18,11.7.12,17.55-.03,2.75.54,4.32,4.43,1.57Zm-14.9-7.57c-.06,0-.12-.01-.18-.02,0-.75.16-1.54-.03-2.23-.39-1.42-.97-2.79-1.47-4.17-1.67.84-4.31,1.31-4.81,2.61-1.06,2.76-1.33,5.95-1.26,8.96.02,1.16,2,3.32,2.79,3.19,1.54-.25,3.39-1.51,4.15-2.88.84-1.5.59-3.61.82-5.45Z"/><path class="cls-1" d="m240.94,176.15c2.32-.93,4.57-2.2,6.98-2.73,4.46-.99,7.53,1.19,8.41,5.7,1.07,5.5,1.74,11.09,3.13,16.49.54,2.11,2.59,3.82,3.96,5.72,1.45-1.88,3.51-3.56,4.23-5.69,2.08-6.11,2.64-12.44.26-18.67-.81-2.12-.03-3.41,1.84-3.44,1.19-.02,3.39,1.19,3.46,2.01,1.02,10.78-.1,21.28-6.69,30.29-4.2,5.74-11.32,5.32-14.63-1.18-2.6-5.1-3.73-10.98-5.29-16.58-.63-2.26-.62-4.68-.95-7.03-.53-3.76-.83-4.03-4.72-4.9Z"/><path class="cls-1" d="m123.2,201.72c-2.95,5.71-7.99,7.95-14,7.84-6.05-.11-10.74-2.9-13.54-8.42-5.78-11.42.8-25.18,13.37-27.51,2.58-.48,5.64-.34,8,.66,1.95.83,4.13,3.19,4.45,5.16.28,1.71-1.49,4.39-3.12,5.62-3.45,2.61-7.33,4.7-11.17,6.74-2.3,1.22-2.47,2.68-1.71,4.87,2.71,7.9,9.63,10.33,16.5,5.72.38-.26.81-.45,1.22-.67Zm-19.06-11.17c3.1-1.76,5.41-2.92,7.56-4.34,2.52-1.67,1.95-4.24,1-6.37-.54-1.23-2.75-3-3.18-2.76-1.54.89-3.24,2.34-3.79,3.95-.92,2.72-1.01,5.73-1.59,9.52Z"/><path class="cls-1" d="m128.11,195.11v-7.99h17.16v7.99h-17.16Z"/><path class="cls-1" d="m227.04,229.48c.85-1.39,1.37-3.27,2.6-4.07,3.72-2.42,7.74-4.37,11.58-6.61,1.53-.9,3.18-1.86,4.27-3.2,2.41-2.95,6.88-4.28,10.37-2.69,2.78,1.27,3.32,3.88.67,5.38-2.2,1.25-5.05,1.41-7.65,1.88-2.34.43-5.03.03-7.01,1.06-3.94,2.04-7.5,4.81-11.21,7.3-.85.57-1.65,1.21-2.48,1.82-.38-.29-.76-.58-1.15-.87Z"/><path class="cls-1" d="m247.72,227.78c2.66-2.96,5.41-5.56,9.77-5.19,1.43.12,2.97-.96,4.46-1.5,3.82-1.4,7.58-3.05,11.5-4.08,1.72-.45,3.77.35,5.67.59-.02.44-.04.89-.06,1.33-.73.25-1.44.56-2.18.75-4.33,1.08-8.76,1.85-12.95,3.33-2.16.76-3.8,2.89-5.79,4.24-2.5,1.69-5.1,3.23-7.66,4.83-.19-.29-.38-.58-.58-.87,1.21-.94,2.41-1.88,3.62-2.82-.07-.13-.15-.25-.22-.38-1.8.84-3.6,1.68-5.4,2.52-.17-.3-.33-.6-.5-.9,1.75-1.15,3.5-2.29,5.25-3.44-.08-.18-.17-.37-.25-.55-1.56.72-3.11,1.44-4.67,2.16Z"/><path class="cls-1" d="m188.84,244.83c1.8,5.83,5.47,8.46,11.59,8.36-5.12,3.51-6.4,7.92-4.37,13.67-4.82-3.81-9.31-4.03-14.16.03,1.44-5.57,1.11-10.29-4.59-13.52,5.89-.32,9.96-2.42,11.53-8.54Z"/><path class="cls-1" d="m203.52,259.55c5.29.57,8.79-.16,10.46-4.77,1.17,4.18,3.19,7.11,8.02,7.47-3.86,2.33-5.78,5.26-4.82,9.91-3.31-3.01-6.6-4.01-10.79-1.48,1.99-4.12,1.5-7.56-2.87-11.13Z"/><path class="cls-1" d="m173.17,259.9c-3.16,3.23-3.77,6.56-1.64,10.67-4.02-1.97-7.46-1.94-10.68,1.66.29-4.35-.61-7.84-5.08-9.74,4.31-.99,7.3-2.97,7.85-7.73,2.07,3.91,4.86,5.87,9.56,5.15Z"/></svg>